<svg aria-hidden="true" style="position: absolute; width: 0; height: 0; overflow: hidden;" version="1.1" xmlns="http://www.w3.org/2000/svg" xmlns:xlink="http://www.w3.org/1999/xlink">
<defs>
<symbol id="icon-apple" viewBox="0 0 32 32">
<path fill="#fff" style="fill: var(--color1, #fff)" d="M11.578 32c-4.763-0.027-8.702-9.749-8.702-14.701 0-8.088 6.067-9.858 8.405-9.858 1.054 0 2.179 0.414 3.171 0.78 0.694 0.255 1.412 0.519 1.811 0.519 0.239 0 0.802-0.224 1.299-0.421 1.060-0.422 2.379-0.947 3.916-0.947 0.003 0 0.006 0 0.009 0 1.147 0 4.625 0.252 6.716 3.392l0.49 0.736-0.705 0.532c-1.007 0.76-2.844 2.146-2.844 4.892 0 3.252 2.081 4.503 3.081 5.104 0.441 0.265 0.898 0.539 0.898 1.138 0 0.391-3.12 8.785-7.651 8.785-1.109 0-1.892-0.333-2.584-0.627-0.699-0.298-1.303-0.554-2.3-0.554-0.505 0-1.144 0.239-1.821 0.492-0.925 0.345-1.971 0.737-3.159 0.737h-0.031z"></path>
<path fill="#fff" style="fill: var(--color1, #fff)" d="M21.959 0c0.118 4.255-2.925 7.207-5.964 7.021-0.501-3.395 3.039-7.021 5.964-7.021z"></path>
</symbol>
<symbol id="icon-group-4" viewBox="0 0 32 32">
<path fill="#4fffca" style="fill: var(--color2, #4fffca)" d="M0 23.689c0.174-0.706 0.27-1.438 0.54-2.108 1.089-2.657 3.057-4.278 5.897-4.774 3.406-0.592 6.802 1.281 8.24 4.504 1.272 2.875 0.531 6.482-1.794 8.608-1.245 1.141-2.691 1.83-4.364 2.030-0.070 0.009-0.139 0.035-0.209 0.052-0.435 0-0.871 0-1.315 0-0.2-0.035-0.409-0.078-0.61-0.113-2.787-0.531-4.747-2.108-5.827-4.722-0.279-0.68-0.383-1.438-0.557-2.161 0-0.444 0-0.88 0-1.316zM7.639 18.087c-3.458 0.026-6.271 2.849-6.254 6.273 0.017 3.45 2.857 6.273 6.28 6.255 3.449-0.017 6.271-2.858 6.245-6.273-0.026-3.467-2.848-6.282-6.271-6.255z"></path>
<path fill="#4fffca" style="fill: var(--color2, #4fffca)" d="M24.126 32c-1.838-1.377-3.676-2.753-5.513-4.13-0.131-0.096-0.261-0.209-0.366-0.34-0.209-0.244-0.2-0.549 0-0.802 0.087-0.105 0.183-0.2 0.287-0.279 1.751-1.316 3.493-2.622 5.243-3.938 0.244-0.183 0.488-0.322 0.81-0.2 0.427 0.166 0.592 0.697 0.305 1.054-0.078 0.105-0.192 0.192-0.296 0.27-1.132 0.854-2.265 1.699-3.397 2.553-0.078 0.061-0.157 0.122-0.279 0.227 3.258 0 6.454 0 9.694 0 0-0.122 0-0.244 0-0.366 0-2.805 0-5.602 0-8.407 0-0.619 0.253-0.958 0.706-0.941 0.444 0.009 0.679 0.34 0.679 0.941 0 3.084 0 6.168 0 9.252 0 0.706-0.226 0.932-0.932 0.932-3.249 0-6.498 0-9.746 0-0.113 0-0.218 0-0.331 0-0.009 0.026-0.017 0.044-0.026 0.070 0.087 0.070 0.166 0.131 0.253 0.2 1.115 0.836 2.23 1.673 3.345 2.509 0.645 0.479 0.636 0.95 0 1.403-0.148-0.009-0.296-0.009-0.436-0.009z"></path>
<path fill="#4fffca" style="fill: var(--color2, #4fffca)" d="M0 4.687c0.192-0.392 0.505-0.514 0.932-0.514 3.249 0.009 6.498 0.009 9.746 0.009 0.113 0 0.218 0 0.331 0 0.009-0.017 0.017-0.044 0.026-0.061-0.087-0.070-0.165-0.131-0.253-0.2-1.115-0.836-2.23-1.673-3.345-2.509-0.113-0.087-0.235-0.183-0.322-0.288-0.2-0.235-0.2-0.601-0.009-0.836 0.192-0.253 0.523-0.34 0.81-0.209 0.105 0.044 0.2 0.113 0.296 0.174 1.759 1.316 3.519 2.631 5.269 3.955 0.165 0.122 0.322 0.314 0.392 0.497 0.131 0.375-0.113 0.627-0.392 0.836-1.124 0.845-2.247 1.681-3.371 2.526-0.662 0.497-1.333 1.002-2.003 1.498-0.244 0.183-0.514 0.235-0.793 0.078-0.244-0.131-0.348-0.348-0.348-0.619 0-0.287 0.174-0.479 0.392-0.636 1.15-0.862 2.299-1.725 3.449-2.588 0.078-0.061 0.157-0.122 0.27-0.227-3.258 0-6.454 0-9.694 0 0 0.131 0 0.253 0 0.375 0 2.779 0 5.558 0 8.338 0 0.113 0 0.226-0.009 0.34-0.026 0.348-0.235 0.584-0.566 0.645-0.287 0.052-0.566-0.087-0.723-0.366-0.026-0.052-0.052-0.113-0.078-0.166-0.009-3.346-0.009-6.7-0.009-10.054z"></path>
<path fill="#4fffca" style="fill: var(--color2, #4fffca)" d="M24.309 15.307c-4.233-0.044-7.673-3.52-7.621-7.693 0.061-4.243 3.519-7.658 7.708-7.614 4.233 0.044 7.656 3.52 7.604 7.702-0.061 4.225-3.519 7.649-7.691 7.606zM24.353 1.385c-3.432-0.009-6.254 2.805-6.262 6.255-0.017 3.433 2.805 6.255 6.254 6.264 3.423 0.009 6.262-2.814 6.271-6.255 0-3.415-2.822-6.255-6.262-6.264z"></path>
<path fill="#4fffca" style="fill: var(--color2, #4fffca)" d="M7.639 27.818c-1.925-0.009-3.466-1.559-3.458-3.485 0.009-1.917 1.559-3.467 3.484-3.467 1.916 0 3.466 1.568 3.466 3.485-0.009 1.925-1.568 3.467-3.493 3.467zM7.656 26.433c1.132 0 2.099-0.967 2.082-2.1-0.009-1.124-0.941-2.065-2.073-2.073-1.124-0.017-2.099 0.95-2.099 2.082-0.009 1.133 0.958 2.091 2.090 2.091z"></path>
<path fill="#4fffca" style="fill: var(--color2, #4fffca)" d="M27.819 7.658c-0.009 1.917-1.559 3.467-3.484 3.467-1.916 0-3.467-1.568-3.467-3.485s1.559-3.467 3.484-3.459c1.925 0 3.466 1.559 3.466 3.476zM24.344 5.567c-1.132 0-2.099 0.967-2.082 2.1 0.009 1.124 0.949 2.065 2.073 2.074s2.099-0.95 2.099-2.082c0-1.133-0.958-2.1-2.090-2.091z"></path>
</symbol>
<symbol id="icon-check" viewBox="0 0 32 32">
<path fill="#fff" style="fill: var(--color1, #fff)" d="M7.057 11.057c0.521-0.521 1.365-0.521 1.886 0l7.057 7.057 7.057-7.057c0.521-0.521 1.365-0.521 1.886 0s0.521 1.365 0 1.886l-8 8c-0.521 0.521-1.365 0.521-1.886 0l-8-8c-0.521-0.521-0.521-1.365 0-1.886z"></path>
</symbol>
<symbol id="icon-group-5" viewBox="0 0 32 32">
<path fill="#4fffca" style="fill: var(--color2, #4fffca)" d="M31.992 12.382c-0.219 0.313-0.524 0.399-0.891 0.399-3.651-0.008-7.302-0.008-10.953-0.008-0.704 0-0.923-0.203-0.915-0.907s-0.078-1.416 0.094-2.112c0.453-1.815 1.579-3.004 3.393-3.52 0.297-0.086 0.313-0.149 0.149-0.391-0.289-0.415-0.446-0.9-0.477-1.4-0.063-0.97-0.125-1.94 0.422-2.816 0.641-1.040 1.564-1.619 2.799-1.627 1.243-0.008 2.228 0.54 2.799 1.619 0.758 1.424 0.696 2.902-0.094 4.318-0.141 0.25 0.008 0.242 0.164 0.282 1.673 0.462 2.783 1.517 3.338 3.16 0.078 0.227 0.117 0.461 0.18 0.696-0.008 0.767-0.008 1.541-0.008 2.307zM25.62 11.444c1.548 0 3.096 0 4.652 0 0.453 0 0.461 0 0.453-0.469 0-0.18-0.023-0.352-0.039-0.532-0.149-1.697-1.564-3.027-3.268-3.043-1.204-0.008-2.416 0-3.62 0-0.43 0-0.852 0.094-1.235 0.282-1.392 0.673-2.033 1.815-2.025 3.34 0 0.422 0 0.422 0.407 0.422 1.556 0 3.112 0 4.675 0zM27.551 3.747c0-0.227 0.008-0.415 0-0.602-0.039-1.009-0.891-1.83-1.915-1.838-1.016-0.008-1.892 0.813-1.923 1.83-0.016 0.352-0.008 0.704 0 1.056 0.016 0.79 0.5 1.478 1.227 1.752 0.743 0.282 1.532 0.094 2.087-0.477 0.477-0.501 0.571-1.111 0.524-1.721z"></path>
<path fill="#4fffca" style="fill: var(--color2, #4fffca)" d="M19.632 31.992c-0.297-0.18-0.414-0.438-0.399-0.79 0.039-0.759-0.078-1.517 0.117-2.268 0.469-1.791 1.603-2.949 3.377-3.457 0.266-0.078 0.321-0.133 0.149-0.375-0.297-0.422-0.453-0.915-0.485-1.431-0.055-0.939-0.117-1.877 0.383-2.738 0.618-1.064 1.532-1.666 2.76-1.697 1.259-0.039 2.213 0.54 2.885 1.596 0.555 0.876 0.508 1.846 0.446 2.816-0.039 0.563-0.219 1.079-0.547 1.541-0.102 0.141-0.094 0.211 0.086 0.258 2.001 0.532 3.159 1.854 3.589 3.856 0 0.821-0.008 1.643 0.008 2.464 0 0.188-0.039 0.227-0.227 0.227-4.042 0-8.092 0-12.142 0zM25.613 30.725c1.579 0 3.159-0.008 4.738 0.008 0.305 0 0.414-0.094 0.375-0.391-0.023-0.219-0.031-0.438-0.047-0.649-0.149-1.69-1.571-3.019-3.276-3.043-1.188-0.016-2.369-0.016-3.557 0-0.704 0.008-1.345 0.219-1.915 0.649-0.977 0.727-1.407 1.721-1.407 2.918 0 0.516 0 0.516 0.493 0.516 1.54-0.008 3.065-0.008 4.597-0.008zM23.705 22.895c0 0.227-0.008 0.422 0 0.626 0.039 1.001 0.876 1.791 1.908 1.791 1.048 0.008 1.892-0.79 1.931-1.807 0.016-0.375 0.008-0.751 0-1.119-0.023-0.774-0.563-1.471-1.313-1.721s-1.595 0-2.087 0.595c-0.407 0.485-0.485 1.056-0.438 1.635z"></path>
<path fill="#4fffca" style="fill: var(--color2, #4fffca)" d="M0.407 31.992c-0.305-0.188-0.414-0.462-0.399-0.821 0.031-0.876-0.078-1.76 0.227-2.62 0.563-1.588 1.657-2.613 3.276-3.066 0.274-0.078 0.313-0.141 0.149-0.375-0.297-0.422-0.453-0.915-0.485-1.431-0.063-0.954-0.102-1.909 0.407-2.792 0.657-1.134 2.033-1.838 3.26-1.627 1.454 0.25 2.564 1.298 2.76 2.675 0.141 0.993 0.164 1.995-0.305 2.925-0.008 0.016-0.016 0.039-0.023 0.055-0.242 0.462-0.242 0.462 0.242 0.61 1.939 0.594 3.268 2.386 3.284 4.419 0 0.415-0.016 0.829 0.008 1.252 0.016 0.344-0.109 0.602-0.399 0.782-4.011 0.016-8.006 0.016-12.001 0.016zM6.38 30.725c0.516 0 1.040 0 1.556 0 1.079 0 2.166-0.008 3.245 0.008 0.25 0 0.344-0.078 0.321-0.321-0.024-0.25-0.024-0.501-0.047-0.743-0.164-1.682-1.579-2.988-3.268-3.011-1.188-0.016-2.369-0.016-3.557 0-0.711 0.008-1.36 0.227-1.939 0.665-1.016 0.767-1.399 1.815-1.392 3.051 0 0.289 0.094 0.368 0.375 0.368 1.571-0.023 3.135-0.016 4.707-0.016zM8.319 22.934c0-0.188 0.008-0.375 0-0.563-0.039-1.001-0.876-1.791-1.9-1.799-1.040-0.008-1.9 0.79-1.931 1.799-0.016 0.352-0.008 0.704 0 1.056 0.023 0.884 0.579 1.588 1.431 1.823 0.797 0.219 1.657-0.117 2.119-0.821 0.297-0.454 0.313-0.97 0.281-1.494z"></path>
<path fill="#4fffca" style="fill: var(--color2, #4fffca)" d="M6.387 12.781c-1.829 0-3.659 0-5.488 0-0.657 0-0.891-0.219-0.883-0.876 0.008-0.696-0.078-1.4 0.086-2.081 0.438-1.854 1.571-3.051 3.409-3.583 0.242-0.070 0.336-0.109 0.156-0.368-0.305-0.43-0.461-0.923-0.493-1.439-0.070-0.97-0.117-1.94 0.422-2.816 0.641-1.040 1.564-1.619 2.807-1.619s2.22 0.548 2.791 1.627c0.751 1.431 0.688 2.902-0.102 4.318-0.102 0.18-0.063 0.211 0.117 0.258 2.001 0.555 3.198 1.862 3.542 3.911 0.117 0.688 0.055 1.392 0.023 2.088-0.016 0.352-0.313 0.563-0.743 0.563-0.907 0.008-1.806 0-2.713 0-0.977 0.016-1.955 0.016-2.932 0.016zM6.395 11.444c1.564 0 3.119 0 4.683 0 0.422 0 0.43 0 0.422-0.438 0-0.211-0.023-0.415-0.047-0.618-0.156-1.643-1.579-2.965-3.229-2.98-1.22-0.016-2.431-0.008-3.651 0-0.43 0-0.852 0.094-1.235 0.282-1.376 0.665-2.025 1.791-2.025 3.309 0 0.454 0 0.454 0.438 0.454 1.54-0.008 3.088-0.008 4.644-0.008zM8.326 3.715c0-0.188 0.008-0.375 0-0.563-0.039-1.017-0.868-1.83-1.908-1.846-1.024-0.023-1.908 0.821-1.939 1.846-0.008 0.344-0.008 0.688 0 1.025 0.023 0.907 0.618 1.635 1.493 1.846 0.821 0.203 1.681-0.196 2.119-0.946 0.25-0.43 0.242-0.9 0.235-1.361z"></path>
<path fill="#4fffca" style="fill: var(--color2, #4fffca)" d="M17.787 4.060c0.5 0 1.001-0.008 1.501 0 0.43 0.008 0.719 0.235 0.743 0.595 0.031 0.383-0.211 0.681-0.665 0.704-1.071 0.055-2.142 0.055-3.213 0-0.438-0.023-0.672-0.313-0.649-0.681 0.016-0.368 0.297-0.61 0.727-0.61 0.516-0.016 1.032-0.008 1.556-0.008z"></path>
<path fill="#4fffca" style="fill: var(--color2, #4fffca)" d="M16.004 27.956c-0.516 0-1.040 0.008-1.556 0-0.446-0.008-0.719-0.258-0.719-0.641s0.274-0.641 0.719-0.641c1.048-0.008 2.095-0.008 3.143 0 0.422 0 0.696 0.258 0.704 0.626 0.008 0.391-0.266 0.657-0.704 0.657-0.524 0.008-1.055 0-1.587 0z"></path>
<path fill="#4fffca" style="fill: var(--color2, #4fffca)" d="M5.363 16.004c0 0.508 0.008 1.017 0 1.525-0.008 0.438-0.266 0.727-0.641 0.727s-0.649-0.289-0.649-0.727c-0.008-1.032-0.008-2.057 0-3.090 0-0.446 0.258-0.72 0.641-0.727 0.383 0 0.641 0.274 0.641 0.72 0.016 0.532 0.008 1.056 0.008 1.572z"></path>
<path fill="#4fffca" style="fill: var(--color2, #4fffca)" d="M27.958 16.020c0 0.508 0.008 1.017 0 1.525-0.008 0.43-0.281 0.727-0.657 0.72-0.367-0.008-0.633-0.289-0.633-0.704-0.008-1.040-0.008-2.081 0-3.121 0-0.438 0.274-0.72 0.657-0.712 0.375 0 0.625 0.274 0.633 0.704 0.008 0.524 0 1.056 0 1.588z"></path>
<path fill="#4fffca" style="fill: var(--color2, #4fffca)" d="M13.4 5.35c-0.367 0-0.649-0.282-0.649-0.649 0.008-0.344 0.297-0.634 0.633-0.634 0.352 0 0.649 0.297 0.649 0.657-0.008 0.352-0.281 0.626-0.633 0.626z"></path>
</symbol>
<symbol id="icon-log-in" viewBox="0 0 26 32">
<path fill="#ebe7e5" style="fill: var(--color3, #ebe7e5)" d="M25.231 15.405c0 3.896 0.002 7.791-0.001 11.687-0.001 1.764-1.018 3.176-2.612 3.604-0.355 0.095-0.735 0.128-1.105 0.129-3.291 0.009-10.891 0.010-14.182 0.004-2.166-0.004-3.684-1.516-3.701-3.687-0.012-1.488-0.002-2.976-0.002-4.463 0-0.053-0.001-0.107 0.005-0.16 0.044-0.439 0.348-0.724 0.755-0.71 0.404 0.014 0.691 0.32 0.694 0.766 0.006 1.113 0.002 2.226 0.002 3.339 0 0.386-0.001 0.77 0 1.156 0.002 1.429 0.871 2.307 2.286 2.307 3.131 0.001 10.571 0.002 13.703-0.002 0.318-0.001 0.641 0.002 0.955-0.046 0.989-0.151 1.717-0.996 1.741-2.001 0.011-0.449 0.003-0.899 0.003-1.348 0-7.417 0.001-14.834-0-22.251 0-1.080-0.563-1.901-1.504-2.167-0.232-0.066-0.482-0.093-0.724-0.093-3.301-0.004-10.912-0.004-14.213-0.002-1.357 0.001-2.243 0.889-2.246 2.248-0.002 1.509 0.001 3.018-0.002 4.527-0.001 0.435-0.194 0.708-0.548 0.798-0.387 0.098-0.766-0.12-0.866-0.508-0.031-0.122-0.040-0.254-0.040-0.381-0.002-1.477-0.008-2.954 0-4.431 0.009-1.849 1.128-3.281 2.849-3.64 0.289-0.060 0.592-0.075 0.889-0.076 3.27-0.005 10.848-0.006 14.118-0.002 1.865 0.002 3.256 1.076 3.648 2.825 0.074 0.33 0.093 0.679 0.093 1.019 0.007 3.853 0.005 7.706 0.005 11.558z"></path>
<path fill="#ebe7e5" style="fill: var(--color3, #ebe7e5)" d="M13.878 16.252c-0.186 0-0.302 0-0.419 0-3.132 0-9.454-0.077-12.586-0.079-0.506 0-0.786-0.194-0.859-0.586-0.079-0.423 0.191-0.799 0.616-0.85 0.137-0.016 0.276-0.013 0.415-0.013 3.068-0.001 9.326 0.077 12.394 0.077 0.124 0 0.248 0 0.454 0-0.246-0.298-0.437-0.533-0.632-0.765-0.329-0.393-0.665-0.78-0.989-1.178-0.311-0.381-0.289-0.807 0.042-1.082 0.327-0.272 0.76-0.218 1.071 0.149 0.87 1.027 1.737 2.056 2.601 3.087 0.282 0.337 0.292 0.663 0.020 0.987-0.87 1.041-1.747 2.075-2.622 3.111-0.209 0.248-0.466 0.37-0.793 0.279-0.283-0.078-0.5-0.271-0.504-0.554-0.003-0.233 0.079-0.511 0.221-0.693 0.451-0.582 0.947-1.129 1.424-1.69 0.039-0.046 0.071-0.098 0.145-0.202z"></path>
</symbol>
<symbol id="icon-group-2" viewBox="0 0 46 32">
<path fill="#4fffca" style="fill: var(--color2, #4fffca)" d="M22.585 31.71c-1.322 0-6.785-0.329-11.812-5.357-5.556-5.556-4.188-12.874-3.195-15.23 1.187-2.801 2.208-4.030 5.459-6.567l0.988 1.266c-3.186 2.49-3.961 3.552-4.967 5.927-0.821 1.934-2.054 8.561 2.848 13.463 5.166 5.166 10.871 4.888 10.926 4.883h19.432l-3.738-3.738 1.136-1.136 6.483 6.479h-23.267c-0.023 0-0.125 0.009-0.292 0.009z"></path>
<path fill="#4fffca" style="fill: var(--color2, #4fffca)" d="M33.108 27.147l-0.988-1.266c3.186-2.49 3.961-3.552 4.967-5.927 0.821-1.934 2.054-8.561-2.848-13.463-5.166-5.162-10.866-4.883-10.926-4.879h-19.432l3.738 3.738-1.136 1.141-6.483-6.483h23.267c0.213-0.014 6.442-0.32 12.109 5.347 5.556 5.556 4.188 12.874 3.195 15.225-1.192 2.806-2.212 4.030-5.463 6.567z"></path>
<path fill="#4fffca" style="fill: var(--color2, #4fffca)" d="M27.65 15.334c0.315-0.209 0.631-0.519 0.844-0.83 0.315-0.519 0.529-1.141 0.529-1.869 0-1.039-0.422-1.976-1.266-2.495-0.844-0.621-1.897-0.83-3.372-0.83h-0.107v-1.976h-1.581v1.976h-0.315v-1.976h-1.581v1.976h-3.372v1.558h1.368v9.563h-1.368v1.558h3.372v1.869h1.581v-1.869h0.315v1.869h1.581v-1.869h0.529c1.581 0 2.736-0.311 3.58-0.937 0.844-0.621 1.266-1.456 1.266-2.597 0-0.83-0.209-1.558-0.737-2.184-0.213-0.417-0.742-0.728-1.266-0.937zM27.859 18.349c0 0.728-0.209 1.248-0.737 1.558s-1.266 0.519-2.319 0.519h-4.109v-4.053h4.109c2.11-0.102 3.056 0.626 3.056 1.976zM20.698 14.713v-3.845h3.687c0.946 0 1.683 0.209 2.105 0.519s0.737 0.83 0.737 1.456c0 0.621-0.209 1.039-0.631 1.35-0.529 0.311-1.266 0.519-2.105 0.519h-3.794z"></path>
</symbol>
<symbol id="icon-logo" viewBox="0 0 157 32">
<path fill="#ebe7e5" style="fill: var(--color3, #ebe7e5)" d="M40.605 31.218c-0.496-0.293-0.894-0.587-1.092-1.075-0.298-0.489-0.397-0.978-0.397-1.564s0.099-1.075 0.397-1.564c0.298-0.489 0.695-0.782 1.092-1.075 0.496-0.293 0.993-0.391 1.588-0.391 0.496 0 0.894 0.098 1.291 0.196s0.695 0.391 0.993 0.684l-0.397 0.391c-0.496-0.489-1.092-0.684-1.787-0.684-0.496 0-0.894 0.098-1.291 0.293s-0.695 0.489-0.894 0.88c-0.199 0.391-0.298 0.782-0.298 1.271s0.099 0.88 0.298 1.271c0.199 0.391 0.496 0.684 0.894 0.88s0.794 0.293 1.291 0.293c0.695 0 1.291-0.196 1.787-0.684l0.397 0.391c-0.298 0.293-0.596 0.489-0.993 0.684s-0.794 0.195-1.291 0.195c-0.596 0-1.092-0.098-1.588-0.391z"></path>
<path fill="#ebe7e5" style="fill: var(--color3, #ebe7e5)" d="M49.937 31.609l-1.39-1.955c-0.199 0-0.298 0-0.496 0h-1.588v1.858h-0.596v-5.964h2.283c0.794 0 1.39 0.196 1.787 0.587s0.695 0.88 0.695 1.466c0 0.489-0.099 0.88-0.397 1.173-0.199 0.293-0.596 0.587-0.993 0.684l1.489 2.053h-0.794v0.098zM49.441 28.774c0.298-0.293 0.496-0.587 0.496-1.075s-0.199-0.88-0.496-1.076c-0.298-0.391-0.794-0.489-1.39-0.489h-1.588v3.031h1.588c0.596 0 1.092-0.196 1.39-0.391z"></path>
<path fill="#ebe7e5" style="fill: var(--color3, #ebe7e5)" d="M54.107 29.458v2.053h-0.596v-2.053l-2.383-3.911h0.695l2.085 3.324 2.085-3.324h0.596l-2.482 3.911z"></path>
<path fill="#ebe7e5" style="fill: var(--color3, #ebe7e5)" d="M61.453 26.134c0.397 0.391 0.695 0.88 0.695 1.466 0 0.684-0.199 1.173-0.695 1.467-0.397 0.391-1.092 0.587-1.787 0.587h-1.588v1.858h-0.596v-5.964h2.283c0.695 0 1.291 0.196 1.688 0.587zM60.957 28.774c0.298-0.293 0.496-0.587 0.496-1.075s-0.199-0.88-0.496-1.076c-0.298-0.293-0.794-0.391-1.39-0.391h-1.588v3.031h1.588c0.695-0.098 1.092-0.293 1.39-0.489z"></path>
<path fill="#ebe7e5" style="fill: var(--color3, #ebe7e5)" d="M64.531 26.134h-2.184v-0.587h4.865v0.587h-2.184v5.475h-0.496v-5.475z"></path>
<path fill="#ebe7e5" style="fill: var(--color3, #ebe7e5)" d="M69.197 31.218c-0.496-0.293-0.894-0.587-1.191-1.075s-0.397-0.978-0.397-1.564 0.099-1.075 0.397-1.564c0.298-0.489 0.695-0.782 1.191-1.075s0.993-0.391 1.588-0.391c0.596 0 1.191 0.098 1.588 0.391 0.496 0.293 0.893 0.587 1.092 1.075 0.298 0.489 0.397 0.978 0.397 1.564s-0.099 1.075-0.397 1.564c-0.298 0.489-0.695 0.782-1.092 1.075-0.496 0.293-0.993 0.391-1.588 0.391s-1.092-0.098-1.588-0.391zM72.176 30.729c0.397-0.196 0.695-0.489 0.894-0.88s0.298-0.782 0.298-1.271-0.099-0.88-0.298-1.271c-0.199-0.391-0.496-0.684-0.894-0.88s-0.794-0.293-1.291-0.293c-0.496 0-0.894 0.098-1.291 0.293s-0.695 0.489-0.893 0.88c-0.199 0.391-0.298 0.782-0.298 1.271s0.099 0.88 0.298 1.271c0.198 0.391 0.496 0.684 0.893 0.88s0.794 0.293 1.291 0.293c0.496 0 0.893-0.098 1.291-0.293z"></path>
<path fill="#ebe7e5" style="fill: var(--color3, #ebe7e5)" d="M77.735 25.547h0.695v5.964h-0.596v-5.964h-0.099z"></path>
<path fill="#ebe7e5" style="fill: var(--color3, #ebe7e5)" d="M80.813 31.413c-0.397-0.098-0.695-0.293-0.993-0.587l0.298-0.489c0.198 0.195 0.496 0.391 0.893 0.489s0.695 0.196 1.092 0.196c0.496 0 0.993-0.098 1.191-0.293 0.298-0.196 0.397-0.489 0.397-0.782 0-0.196-0.099-0.391-0.198-0.587-0.099-0.098-0.298-0.293-0.496-0.293-0.198-0.098-0.496-0.196-0.893-0.293-0.496-0.098-0.794-0.196-1.092-0.293s-0.496-0.293-0.695-0.489c-0.198-0.196-0.298-0.489-0.298-0.88 0-0.293 0.099-0.587 0.198-0.782 0.199-0.293 0.397-0.489 0.794-0.587s0.794-0.196 1.291-0.196c0.397 0 0.695 0 0.993 0.098s0.596 0.196 0.894 0.391l-0.199 0.489c-0.298-0.196-0.496-0.293-0.794-0.391s-0.596-0.098-0.894-0.098c-0.496 0-0.893 0.098-1.191 0.293s-0.397 0.489-0.397 0.782c0 0.196 0.099 0.391 0.198 0.587 0.099 0.098 0.298 0.293 0.596 0.293 0.198 0.098 0.496 0.195 0.893 0.293s0.794 0.196 1.092 0.293c0.298 0.098 0.496 0.293 0.695 0.489s0.298 0.489 0.298 0.88c0 0.293-0.099 0.587-0.198 0.782-0.199 0.293-0.397 0.489-0.794 0.587-0.298 0.098-0.794 0.196-1.291 0.196-0.596 0.098-0.993 0-1.39-0.098z"></path>
<path fill="#ebe7e5" style="fill: var(--color3, #ebe7e5)" d="M88.358 31.413c-0.397-0.098-0.695-0.293-0.993-0.587l0.298-0.489c0.199 0.195 0.496 0.391 0.894 0.489s0.695 0.196 1.092 0.196c0.496 0 0.993-0.098 1.191-0.293 0.298-0.196 0.397-0.489 0.397-0.782 0-0.196-0.099-0.391-0.199-0.587-0.099-0.098-0.298-0.293-0.496-0.293-0.199-0.098-0.496-0.196-0.894-0.293-0.496-0.098-0.794-0.196-1.092-0.293s-0.496-0.293-0.695-0.489c-0.199-0.196-0.298-0.489-0.298-0.88 0-0.293 0.099-0.587 0.199-0.782 0.199-0.293 0.397-0.489 0.794-0.587s0.794-0.196 1.291-0.196c0.298 0 0.695 0 0.993 0.098s0.596 0.196 0.893 0.391l-0.198 0.489c-0.298-0.196-0.496-0.293-0.794-0.391s-0.596-0.098-0.894-0.098c-0.496 0-0.894 0.098-1.191 0.293s-0.397 0.489-0.397 0.782c0 0.196 0.099 0.391 0.199 0.587 0.099 0.098 0.298 0.293 0.596 0.293 0.199 0.098 0.496 0.195 0.894 0.293s0.794 0.196 1.092 0.293c0.298 0.098 0.496 0.293 0.695 0.489s0.298 0.489 0.298 0.88c0 0.293-0.1 0.587-0.198 0.782-0.198 0.293-0.397 0.489-0.794 0.587-0.298 0.098-0.794 0.196-1.291 0.196-0.496 0.098-0.993 0-1.39-0.098z"></path>
<path fill="#ebe7e5" style="fill: var(--color3, #ebe7e5)" d="M93.322 25.547h0.595v5.964h-0.595v-5.964z"></path>
<path fill="#ebe7e5" style="fill: var(--color3, #ebe7e5)" d="M102.256 25.547v5.964h-0.595v-4.791l-2.383 4.009h-0.298l-2.383-4.009v4.791h-0.595v-5.964h0.496l2.681 4.4 2.582-4.4h0.496z"></path>
<path fill="#ebe7e5" style="fill: var(--color3, #ebe7e5)" d="M108.313 26.134c0.398 0.391 0.695 0.88 0.695 1.466 0 0.684-0.198 1.173-0.695 1.467-0.397 0.391-1.092 0.587-1.787 0.587h-1.589v1.858h-0.695v-5.964h2.284c0.794 0 1.39 0.196 1.787 0.587zM107.916 28.774c0.298-0.293 0.496-0.587 0.496-1.075s-0.198-0.88-0.496-1.076c-0.298-0.293-0.794-0.391-1.39-0.391h-1.589v3.031h1.589c0.595-0.098 0.992-0.293 1.39-0.489z"></path>
<path fill="#ebe7e5" style="fill: var(--color3, #ebe7e5)" d="M110.398 25.547h0.595v5.475h3.376v0.587h-4.070v-6.062h0.1z"></path>
<path fill="#ebe7e5" style="fill: var(--color3, #ebe7e5)" d="M119.829 31.022v0.587h-4.269v-5.964h4.17v0.489h-3.575v2.151h3.177v0.587h-3.177v2.151h3.674z"></path>
<path fill="#ebe7e5" style="fill: var(--color3, #ebe7e5)" d="M77.239 0.713h4.765v20.434h-4.765v-20.434z"></path>
<path fill="#ebe7e5" style="fill: var(--color3, #ebe7e5)" d="M67.609 0.713v12.417l-10.325-12.417h-4.666v11.244c0 1.858-0.397 3.226-1.191 4.106s-1.886 1.271-3.375 1.271c-3.078 0-4.567-1.76-4.567-5.475v-11.146h-4.765v11.439c0 2.933 0.794 5.28 2.482 6.942 1.588 1.564 3.971 2.444 6.95 2.444s5.262-0.782 6.95-2.444c1.588-1.564 2.482-3.911 2.482-6.942v-4.302l0.794 0.88 10.226 12.417h3.971v-20.434h-4.964z"></path>
<path fill="#ebe7e5" style="fill: var(--color3, #ebe7e5)" d="M28.691 0.713h-25.614c-1.688 0-3.078 1.369-3.078 2.933v25.323c0 1.662 1.39 3.031 3.078 3.031h25.614c1.688 0 3.078-1.369 3.078-3.031v-25.323c0-1.564-1.39-2.933-3.078-2.933zM29.486 16.357h-13.899v13.688h-0.695c0-7.235-5.957-13.004-13.204-13.004v-0.684h13.899v-13.688h0.596c0 7.235 5.957 13.004 13.204 13.004v0.684h0.099z"></path>
<path fill="#ebe7e5" style="fill: var(--color3, #ebe7e5)" d="M89.351 20.463c-1.39-0.489-2.482-1.075-3.177-1.858l0.794-1.662c0.695 0.684 1.688 1.271 2.978 1.76 1.191 0.391 2.482 0.684 3.773 0.684 1.787 0 3.177-0.293 4.070-0.978 0.893-0.587 1.39-1.467 1.39-2.542 0-0.782-0.198-1.467-0.695-1.955s-1.092-0.782-1.787-1.075c-0.695-0.195-1.688-0.489-2.979-0.782-1.489-0.391-2.78-0.684-3.673-1.075-0.894-0.293-1.688-0.88-2.383-1.564-0.596-0.684-0.993-1.662-0.993-2.933 0-0.978 0.298-1.955 0.794-2.738s1.39-1.467 2.482-1.955c1.092-0.489 2.482-1.075 4.169-1.075 1.191 0 2.284 0.098 3.475 0.489s2.085 0.684 2.879 1.271l-0.695 1.662c-0.794-0.489-1.787-0.978-2.78-1.271s-1.886-0.391-2.879-0.391c-1.787 0-3.177 0.293-4.070 0.978s-1.39 1.564-1.39 2.64c0 0.782 0.199 1.467 0.695 1.955s1.092 0.88 1.886 1.075c0.695 0.196 1.787 0.489 2.978 0.782 1.489 0.391 2.681 0.684 3.674 1.075 0.893 0.293 1.688 0.88 2.383 1.564 0.595 0.684 0.993 1.662 0.993 2.933 0 0.978-0.298 1.955-0.794 2.738s-1.39 1.466-2.581 1.955c-1.093 0.489-2.582 0.684-4.269 0.684-1.391 0.391-2.88 0.098-4.269-0.391z"></path>
<path fill="#ebe7e5" style="fill: var(--color3, #ebe7e5)" d="M109.802 2.669h-7.248v-1.858h16.58v1.858h-7.248v18.381h-2.184l0.1-18.381z"></path>
<path fill="#ebe7e5" style="fill: var(--color3, #ebe7e5)" d="M137.104 19.192v1.858h-14.494v-20.239h14.097v1.858h-11.914v7.137h10.623v1.76h-10.623v7.528h12.311v0.098z"></path>
<path fill="#ebe7e5" style="fill: var(--color3, #ebe7e5)" d="M154.775 21.050l-6.651-8.897-6.553 8.897h-2.481l7.843-10.364-7.346-9.777h2.481l6.156 8.213 6.155-8.213h2.283l-7.247 9.777 7.843 10.462h-2.482v-0.098z"></path>
</symbol>
<symbol id="icon-facebook" viewBox="0 0 32 32">
<path fill="#5e5e5e" style="fill: var(--color4, #5e5e5e)" d="M15.619-0.025c-8.613 0-15.579 6.966-15.579 15.579-0.063 8.676 6.966 15.643 15.579 15.643s15.58-6.966 15.58-15.579c0-8.613-6.967-15.643-15.58-15.643zM19.735 15.554h-2.723c0 4.306 0 9.626 0 9.626h-3.99c0 0 0-5.256 0-9.626h-1.9v-3.42h1.9v-2.217c0-1.583 0.76-4.053 4.053-4.053h2.976v3.293c0 0-1.773 0-2.153 0s-0.823 0.19-0.823 0.95v2.027h3.040l-0.38 3.42z"></path>
</symbol>
<symbol id="icon-youtube" viewBox="0 0 32 32">
<path fill="#5e5e5e" style="fill: var(--color4, #5e5e5e)" d="M13.148 19.64l6.536-3.26-6.536-3.276v6.536z"></path>
<path fill="#5e5e5e" style="fill: var(--color4, #5e5e5e)" d="M15.768 0.78c-8.611 0-15.599 6.988-15.599 15.599s6.988 15.599 15.599 15.599 15.599-6.988 15.599-15.599c0-8.61-6.988-15.599-15.599-15.599zM25.564 18.984c0 2.153-1.763 3.915-3.915 3.915h-11.762c-2.153 0-3.915-1.763-3.915-3.915v-5.226c0-2.153 1.763-3.915 3.915-3.915h11.762c2.153 0 3.915 1.763 3.915 3.915v5.226z"></path>
</symbol>
<symbol id="icon-instagram" viewBox="0 0 32 32">
<path fill="#5e5e5e" style="fill: var(--color4, #5e5e5e)" d="M15.913 0.002c8.596 0 15.574 6.978 15.574 15.574s-6.978 15.574-15.574 15.574-15.574-6.978-15.574-15.574c0-8.596 6.978-15.574 15.574-15.574zM15.913 5.842c-2.646 0-2.975 0.012-4.015 0.061-1.034 0.049-1.746 0.213-2.36 0.45-0.639 0.249-1.18 0.584-1.722 1.125s-0.876 1.083-1.125 1.722c-0.243 0.621-0.408 1.326-0.45 2.36-0.049 1.040-0.061 1.369-0.061 4.015s0.012 2.975 0.061 4.015c0.049 1.034 0.213 1.746 0.45 2.36 0.249 0.639 0.584 1.18 1.125 1.722s1.083 0.876 1.722 1.125c0.621 0.243 1.326 0.408 2.36 0.45 1.040 0.049 1.369 0.061 4.015 0.061s2.975-0.012 4.015-0.061c1.034-0.049 1.746-0.213 2.36-0.45 0.639-0.249 1.18-0.584 1.722-1.125s0.876-1.083 1.125-1.722c0.243-0.62 0.408-1.326 0.45-2.36 0.049-1.040 0.061-1.369 0.061-4.015s-0.012-2.975-0.061-4.015c-0.049-1.034-0.213-1.746-0.45-2.36-0.249-0.639-0.584-1.18-1.125-1.722s-1.083-0.876-1.722-1.125c-0.62-0.243-1.326-0.408-2.36-0.45-1.040-0.049-1.375-0.061-4.015-0.061zM15.913 7.594c2.598 0 2.908 0.012 3.936 0.055 0.949 0.043 1.466 0.201 1.807 0.335 0.456 0.176 0.779 0.389 1.119 0.73s0.554 0.663 0.73 1.119c0.134 0.341 0.292 0.858 0.335 1.807 0.049 1.028 0.055 1.332 0.055 3.936s-0.012 2.908-0.055 3.936c-0.043 0.949-0.201 1.466-0.335 1.807-0.176 0.456-0.389 0.779-0.73 1.119s-0.663 0.554-1.119 0.73c-0.341 0.134-0.858 0.292-1.807 0.335-1.028 0.049-1.332 0.055-3.936 0.055s-2.908-0.012-3.936-0.055c-0.949-0.043-1.466-0.201-1.807-0.335-0.456-0.176-0.779-0.389-1.119-0.73s-0.554-0.663-0.73-1.119c-0.134-0.341-0.292-0.858-0.335-1.807-0.049-1.028-0.055-1.332-0.055-3.936s0.012-2.908 0.055-3.936c0.043-0.949 0.201-1.466 0.335-1.807 0.176-0.456 0.389-0.779 0.73-1.119s0.663-0.554 1.119-0.73c0.341-0.134 0.858-0.292 1.807-0.335 1.028-0.043 1.338-0.055 3.936-0.055zM15.913 10.575c-2.762 0-5.001 2.239-5.001 5.001s2.239 5.001 5.001 5.001 5.001-2.239 5.001-5.001c0-2.762-2.239-5.001-5.001-5.001zM15.913 18.818c-1.795 0-3.243-1.454-3.243-3.243 0-1.795 1.454-3.242 3.243-3.242s3.243 1.454 3.243 3.242c0 1.789-1.454 3.243-3.243 3.243zM22.276 10.38c0 0.645-0.523 1.168-1.168 1.168s-1.168-0.523-1.168-1.168 0.523-1.168 1.168-1.168c0.645 0 1.168 0.523 1.168 1.168z"></path>
</symbol>
<symbol id="icon-group-1" viewBox="0 0 32 32">
<path fill="#4fffca" style="fill: var(--color2, #4fffca)" d="M29.021 0.158h-16.158c-1.434 0-2.659 1.155-2.659 2.623v2.99c-0.691-0.21-1.434-0.368-2.126-0.368-3.722 0-6.749 2.99-6.749 6.661 0 2.464 1.383 4.719 3.56 5.874h-2.762v3.2h-1.806v4.090h1.806v2.516h-1.806v4.090h28.649c1.434 0 2.659-1.155 2.659-2.623v-26.431c-0.004-1.468-1.173-2.623-2.608-2.623zM13.977 25.229v2.516h-11.053v-2.516h11.053zM1.114 24.441v-2.516h11.057v2.516h-11.057zM30.827 27.115v2.045c0 0.997-0.85 1.835-1.861 1.835h-15.996v-2.516h1.806v-1.365h16.052zM12.969 24.441v-2.516h1.806v-4.094h-3.56c2.177-1.155 3.56-3.41 3.56-5.874 0-2.516-1.49-4.877-3.774-5.977v-0.577h19.825v20.874h-16.052v-1.887h-1.806v0.052zM8.077 17.887c-3.296 0-5.951-2.623-5.951-5.874s2.659-5.874 5.951-5.874c3.296 0 5.951 2.623 5.951 5.874 0.004 3.252-2.707 5.874-5.951 5.874zM13.977 18.674v2.464h-11.053v-2.516h11.053v0.052zM12.171 28.532v2.516h-11.057v-2.516h11.057zM30.827 2.781v1.942h-19.825v-1.942c0-0.997 0.85-1.835 1.861-1.835h16.158c1.008 0 1.806 0.839 1.806 1.835z"></path>
<path fill="#4fffca" style="fill: var(--color2, #4fffca)" d="M28.966 31.996h-28.807v-4.41h1.806v-2.2h-1.806v-4.41h1.806v-3.2h2.336c-1.946-1.251-3.13-3.391-3.13-5.712 0-3.759 3.101-6.819 6.911-6.819 0.57 0 1.232 0.107 1.968 0.313v-2.777c0-1.534 1.265-2.781 2.817-2.781h16.154c1.523 0 2.762 1.247 2.762 2.781v26.431c0 1.537-1.262 2.784-2.817 2.784zM0.478 31.676h28.487c1.376 0 2.497-1.103 2.497-2.464v-26.431c0-1.357-1.096-2.464-2.446-2.464h-16.154c-1.376 0-2.497 1.103-2.497 2.464v3.204l-0.206-0.063c-0.787-0.239-1.486-0.36-2.078-0.36-3.634 0-6.591 2.917-6.591 6.499 0 2.402 1.332 4.598 3.476 5.734l0.566 0.302h-3.248v3.2h-1.806v3.77h1.806v2.836h-1.806v3.774zM12.329 31.209h-11.373v-2.836h11.373v2.836zM1.276 30.889h10.737v-2.2h-10.737v2.2zM28.966 31.158h-16.158v-2.836h1.806v-1.365h16.372v2.203c0 1.081-0.923 1.997-2.019 1.997zM13.127 30.838h15.838c0.923 0 1.699-0.769 1.699-1.677v-1.887h-15.732v1.365h-1.806v2.2zM14.139 27.906h-11.377v-2.836h11.373v2.836h0.004zM3.082 27.586h10.737v-2.2h-10.737v2.2zM30.985 26.435h-16.368v-1.887h-1.648v-0.107h-0.158v-2.678h1.806v-3.77h-4.046l0.566-0.302c2.144-1.137 3.476-3.332 3.476-5.734 0-2.464-1.446-4.756-3.682-5.834l-0.092-0.044v-0.835h20.145v21.19zM14.933 26.119h15.732v-20.554h-19.502v0.316c2.295 1.148 3.774 3.524 3.774 6.076 0 2.321-1.188 4.462-3.134 5.716h3.134v4.41h-1.806v2.144h1.806v1.891h-0.004zM12.329 24.6h-11.373v-2.836h11.373v2.836zM1.276 24.283h10.737v-2.2h-10.737v2.2zM14.139 21.297h-11.377v-2.836h11.373v2.836h0.004zM3.082 20.977h10.737v-2.2h-10.737v2.2zM8.077 18.045c-3.369 0-6.113-2.707-6.113-6.032s2.74-6.032 6.113-6.032c3.373 0 6.113 2.707 6.113 6.032s-2.74 6.032-6.113 6.032zM8.077 6.297c-3.196 0-5.793 2.564-5.793 5.716s2.6 5.716 5.793 5.716c3.193 0 5.793-2.564 5.793-5.716s-2.597-5.716-5.793-5.716zM30.985 4.881h-20.142v-2.1c0-1.081 0.923-1.994 2.019-1.994h16.158c1.085 0 1.968 0.894 1.968 1.994v2.1h-0.004zM11.163 4.565h19.505v-1.784c0-0.923-0.739-1.677-1.648-1.677h-16.158c-0.923 0-1.699 0.769-1.699 1.677v1.784z"></path>
<path fill="#4fffca" style="fill: var(--color2, #4fffca)" d="M17.114 24.861h3.082v-7.132h-3.137v7.132h0.055zM19.399 18.516v5.558h-1.541v-5.558h1.541z"></path>
<path fill="#4fffca" style="fill: var(--color2, #4fffca)" d="M20.355 25.019h-3.454v-7.448h3.454v7.448zM17.221 24.703h2.817v-6.816h-2.817v6.816zM19.56 24.235h-1.861v-5.881h1.861v5.881zM18.019 23.915h1.221v-5.241h-1.221v5.241z"></path>
<path fill="#4fffca" style="fill: var(--color2, #4fffca)" d="M21.26 24.861h3.137v-11.641h-3.137v11.641zM23.599 14.006v10.016h-1.541v-10.016h1.541z"></path>
<path fill="#4fffca" style="fill: var(--color2, #4fffca)" d="M24.555 25.019h-3.454v-11.961h3.454v11.961zM21.418 24.703h2.817v-11.325h-2.817v11.325zM23.757 24.18h-1.861v-10.336h1.861v10.336zM22.216 23.864h1.221v-9.699h-1.221v9.699z"></path>
<path fill="#4fffca" style="fill: var(--color2, #4fffca)" d="M28.543 8.132h-3.137v16.728h3.137v-16.728zM26.255 24.074v-15.154h1.541v15.158h-1.541v-0.004z"></path>
<path fill="#4fffca" style="fill: var(--color2, #4fffca)" d="M28.701 25.019h-3.454v-17.048h3.454v17.048zM25.563 24.703h2.817v-16.412h-2.817v16.412zM27.958 24.235h-1.861v-15.478h1.861v15.478zM26.417 23.915h1.221v-14.838h-1.221v14.838z"></path>
<path fill="#4fffca" style="fill: var(--color2, #4fffca)" d="M18.177 9.968l1.754 1.994 3.987-3.88v1.365h0.798v-2.678h-2.817v0.787h1.383l-3.296 3.251-1.754-1.994-2.659 2.674 0.53 0.526 2.074-2.045z"></path>
<path fill="#4fffca" style="fill: var(--color2, #4fffca)" d="M16.103 12.237l-0.758-0.747 2.891-2.909 1.754 1.994 2.898-2.862h-1.151v-1.107h3.137v2.994h-1.114v-1.144l-3.84 3.733-1.754-1.994-2.063 2.041zM15.798 11.487l0.305 0.302 2.082-2.052 1.754 1.994 4.138-4.028v1.582h0.478v-2.358h-2.497v0.467h1.611l-3.693 3.641-1.754-1.99-2.424 2.442z"></path>
<path fill="#4fffca" style="fill: var(--color2, #4fffca)" d="M21.26 2.31h-1.221v1.206h1.221v-1.206z"></path>
<path fill="#4fffca" style="fill: var(--color2, #4fffca)" d="M21.418 3.674h-1.541v-1.523h1.541v1.523zM20.197 3.358h0.905v-0.89h-0.905v0.89z"></path>
<path fill="#4fffca" style="fill: var(--color2, #4fffca)" d="M0.692 3.41c0.905 0 1.596 0.68 1.648 1.519h-0.107l0.107 0.107c0 0 0 0 0 0.051v0.261l0.427 0.368 0.32-0.316 0.107-0.158v-0.21c0-0.89 0.743-1.626 1.648-1.626h0.265l0.427-0.368-0.265-0.316-0.158-0.158h-0.265c-0.905 0-1.596-0.68-1.648-1.519h-0.059c0-0.051 0-0.051 0-0.107l0.051-0.261-0.427-0.412-0.316 0.313-0.107 0.158v0.261l-0.107 0.107h0.107c-0.055 0.839-0.798 1.523-1.648 1.523 0 0-0.051 0-0.107 0h-0.158l-0.427 0.364 0.32 0.316 0.158 0.103h0.213zM2.762 2.258c0.158 0.316 0.427 0.526 0.743 0.736-0.32 0.21-0.585 0.419-0.743 0.736-0.213-0.316-0.427-0.526-0.743-0.736 0.32-0.158 0.533-0.423 0.743-0.736z"></path>
<path fill="#4fffca" style="fill: var(--color2, #4fffca)" d="M10.63 11.906c0.158-0.107 0.32-0.261 0.427-0.419 0.158-0.261 0.265-0.577 0.265-0.945 0-0.526-0.213-0.997-0.636-1.258-0.427-0.316-0.956-0.419-1.699-0.419h-0.052v-0.997h-0.798v0.997h-0.158v-0.997h-0.798v0.997h-1.699v0.787h0.691v4.826h-0.691v0.787h1.699v0.945h0.798v-0.945h0.158v0.945h0.798v-0.945h0.261c0.798 0 1.383-0.158 1.806-0.471 0.427-0.316 0.636-0.736 0.636-1.309 0-0.419-0.107-0.787-0.371-1.1-0.103-0.213-0.371-0.371-0.636-0.478zM10.737 13.429c0 0.368-0.107 0.629-0.371 0.787s-0.636 0.261-1.17 0.261h-2.074v-2.045h2.074c1.063-0.052 1.541 0.313 1.541 0.997zM7.121 11.594v-1.942h1.861c0.478 0 0.85 0.107 1.063 0.261 0.213 0.158 0.371 0.419 0.371 0.736s-0.107 0.526-0.32 0.68c-0.265 0.158-0.636 0.261-1.063 0.261h-1.913v0.004z"></path>
</symbol>
<symbol id="icon-group-3" viewBox="0 0 25 32">
<path fill="#4fffca" style="fill: var(--color2, #4fffca)" d="M24.663 31.985h-24.663v-17.431h24.663v17.431zM1.306 30.682h22.050v-14.822h-22.050v14.822z"></path>
<path fill="#4fffca" style="fill: var(--color2, #4fffca)" d="M11.976 12.755l-4.491-4.495 0.922-0.922 2.263 2.266v-8.030h1.306v11.181z"></path>
<path fill="#4fffca" style="fill: var(--color2, #4fffca)" d="M14.509 11.177h-1.306v-11.177l4.495 4.491-0.926 0.926-2.263-2.266v8.026z"></path>
<path fill="#4fffca" style="fill: var(--color2, #4fffca)" d="M24.663 26.059h-4.495c-1.608 0-2.918-1.31-2.918-2.918v-1.043c0-1.608 1.31-2.918 2.918-2.918h4.495v6.878zM20.168 20.488c-0.888 0-1.611 0.723-1.611 1.611v1.047c0 0.888 0.723 1.611 1.611 1.611h3.189v-4.269h-3.189z"></path>
</symbol>
</defs>
</svg>
